<mxfile host="app.diagrams.net" modified="2023-04-10T12:41:27.687Z" agent="Mozilla/5.0 (Macintosh; Intel Mac OS X 10_15_7) AppleWebKit/537.36 (KHTML, like Gecko) Chrome/111.0.0.0 Safari/537.36" etag="QPNLnyDn4KJvBRmO2JGe" version="21.1.5" type="device">
  <diagram id="C5RBs43oDa-KdzZeNtuy" name="Page-1">
    <mxGraphModel dx="636" dy="300" grid="1" gridSize="10" guides="1" tooltips="1" connect="1" arrows="1" fold="1" page="1" pageScale="1" pageWidth="827" pageHeight="1169" math="0" shadow="0">
      <root>
        <mxCell id="WIyWlLk6GJQsqaUBKTNV-0" />
        <mxCell id="WIyWlLk6GJQsqaUBKTNV-1" parent="WIyWlLk6GJQsqaUBKTNV-0" />
        <mxCell id="ijjxZxcLBHufBQeYNjHW-0" value="Parser" style="swimlane;fontStyle=1;align=center;verticalAlign=top;childLayout=stackLayout;horizontal=1;startSize=26;horizontalStack=0;resizeParent=1;resizeParentMax=0;resizeLast=0;collapsible=1;marginBottom=0;whiteSpace=wrap;html=1;" parent="WIyWlLk6GJQsqaUBKTNV-1" vertex="1">
          <mxGeometry x="160" y="330" width="190" height="70" as="geometry" />
        </mxCell>
        <mxCell id="ijjxZxcLBHufBQeYNjHW-2" value="" style="line;strokeWidth=1;fillColor=none;align=left;verticalAlign=middle;spacingTop=-1;spacingLeft=3;spacingRight=3;rotatable=0;labelPosition=right;points=[];portConstraint=eastwest;strokeColor=inherit;" parent="ijjxZxcLBHufBQeYNjHW-0" vertex="1">
          <mxGeometry y="26" width="190" height="8" as="geometry" />
        </mxCell>
        <mxCell id="ijjxZxcLBHufBQeYNjHW-3" value="&lt;u&gt;+ parseInput(:String): Command&lt;/u&gt;" style="text;strokeColor=none;fillColor=none;align=left;verticalAlign=top;spacingLeft=4;spacingRight=4;overflow=hidden;rotatable=0;points=[[0,0.5],[1,0.5]];portConstraint=eastwest;whiteSpace=wrap;html=1;" parent="ijjxZxcLBHufBQeYNjHW-0" vertex="1">
          <mxGeometry y="34" width="190" height="36" as="geometry" />
        </mxCell>
        <mxCell id="ijjxZxcLBHufBQeYNjHW-4" value="&lt;p style=&quot;margin:0px;margin-top:4px;text-align:center;&quot;&gt;&lt;i&gt;&amp;lt;&amp;lt;enumeration&amp;gt;&amp;gt;&lt;/i&gt;&lt;br&gt;&lt;b&gt;CommandType&lt;/b&gt;&lt;/p&gt;&lt;hr size=&quot;1&quot;&gt;&lt;p style=&quot;margin:0px;margin-left:4px;&quot;&gt;ADD&lt;/p&gt;&lt;p style=&quot;margin:0px;margin-left:4px;&quot;&gt;WITHDRAW&lt;/p&gt;&lt;p style=&quot;margin:0px;margin-left:4px;&quot;&gt;BALANCE&lt;/p&gt;&lt;p style=&quot;margin:0px;margin-left:4px;&quot;&gt;EXIT&lt;/p&gt;&lt;p style=&quot;margin:0px;margin-left:4px;&quot;&gt;SHOW_RATE&lt;/p&gt;&lt;p style=&quot;margin:0px;margin-left:4px;&quot;&gt;EXCHANGE&lt;/p&gt;&lt;p style=&quot;margin:0px;margin-left:4px;&quot;&gt;CREATE_ACCOUNT&lt;/p&gt;&lt;p style=&quot;margin:0px;margin-left:4px;&quot;&gt;DELETE_ACCOUNT&lt;/p&gt;&lt;p style=&quot;margin:0px;margin-left:4px;&quot;&gt;HELP&lt;br&gt;TRANSACTION&lt;/p&gt;" style="verticalAlign=top;align=left;overflow=fill;fontSize=12;fontFamily=Helvetica;html=1;whiteSpace=wrap;" parent="WIyWlLk6GJQsqaUBKTNV-1" vertex="1">
          <mxGeometry x="460" y="280" width="190" height="200" as="geometry" />
        </mxCell>
        <mxCell id="ijjxZxcLBHufBQeYNjHW-5" value="Use" style="endArrow=open;endSize=12;dashed=1;html=1;rounded=0;exitX=1.021;exitY=0.306;exitDx=0;exitDy=0;exitPerimeter=0;" parent="WIyWlLk6GJQsqaUBKTNV-1" source="ijjxZxcLBHufBQeYNjHW-3" target="ijjxZxcLBHufBQeYNjHW-4" edge="1">
          <mxGeometry x="-0.1157" y="12" width="160" relative="1" as="geometry">
            <mxPoint x="330" y="380" as="sourcePoint" />
            <mxPoint x="490" y="380" as="targetPoint" />
            <mxPoint as="offset" />
          </mxGeometry>
        </mxCell>
        <mxCell id="ijjxZxcLBHufBQeYNjHW-6" value="" style="swimlane;startSize=0;" parent="WIyWlLk6GJQsqaUBKTNV-1" vertex="1">
          <mxGeometry x="140" y="230" width="530" height="290" as="geometry" />
        </mxCell>
      </root>
    </mxGraphModel>
  </diagram>
</mxfile>
